<svg width="205" height="60" viewBox="0 0 205 60" fill="none" xmlns="http://www.w3.org/2000/svg">
<path d="M7.64276 37.6467L19.0718 30.8647L19.2822 13.0792L9.60604 7.75049L0 13.356L0.210351 44.4287L17.8799 54.1865H19.7029V46.8508L7.64276 40.2764V37.6467ZM6.87147 17.093L9.74627 15.5014L12.6912 17.093V27.0584L6.87147 30.4494V17.093Z" fill="white"/>
<path d="M46.4915 7.75171L36.8153 13.0804L37.0256 30.8659L48.4547 37.6479V40.2777L36.3946 46.8521V54.1877H38.2176L55.8871 44.4299L56.0975 13.3572L46.4915 7.75171ZM49.226 30.4507L43.4063 27.0597V17.0943L46.3512 15.5026L49.226 17.0943V30.4507Z" fill="white"/>
<path d="M33.3096 0H28.0487H22.7879L14.2336 5.12111L21.4556 9.20415L23.9799 7.75086L24.3304 57.301L28.0466 60L28.0487 59.881L28.0509 60L31.7671 57.301L32.1176 7.75086L34.6419 9.20415L41.8639 5.12111L33.3096 0Z" fill="white"/>
<path d="M67.0294 44.2749V14.9141H71.4206C73.0876 14.9141 74.4768 15.2736 75.5881 15.9926C76.713 16.7117 77.5533 17.7303 78.109 19.0485C78.6647 20.3668 78.9425 21.9181 78.9425 23.7023C78.9425 25.4866 78.6511 27.0246 78.0684 28.3162C77.4856 29.6078 76.6317 30.6198 75.5068 31.3521C74.3955 32.0712 73.0334 32.464 71.4206 32.5306V44.2749H67.0294ZM71.4206 28.1364C72.1931 28.1364 72.803 27.99 73.2503 27.697C73.6975 27.3908 74.016 26.9114 74.2057 26.2589C74.409 25.6065 74.5107 24.7676 74.5107 23.7423C74.5107 22.7037 74.409 21.8581 74.2057 21.2057C74.016 20.5532 73.6907 20.0738 73.2299 19.7676C72.7827 19.4613 72.1796 19.3082 71.4206 19.3082V28.1364Z" fill="white"/>
<path d="M80.4088 44.2749L84.9219 14.9141H90.2889L94.8021 44.2749H90.5329L89.7197 38.2829H85.4912L84.678 44.2749H80.4088ZM86.1011 33.729H89.1098L87.8494 23.8621L87.7274 22.3042H87.4835L87.3615 23.8621L86.1011 33.729Z" fill="white"/>
<path d="M98.0291 44.2749V19.3481H93.8819V14.9141H106.567V19.3481H102.42V44.2749H98.0291Z" fill="white"/>
<path d="M108.602 44.2749V14.9141H112.993V27.0579H116.408V14.9141H120.799V44.2749H116.408V31.492H112.993V44.2749H108.602Z" fill="white"/>
<path d="M133.248 44.2749V19.3481H129.101V14.9141H141.787V19.3481H137.64V44.2749H133.248Z" fill="white"/>
<path d="M149.473 44.5945C148.253 44.5945 147.202 44.3149 146.322 43.7556C145.454 43.1963 144.783 42.4374 144.309 41.4786C143.848 40.5199 143.618 39.4414 143.618 38.243V20.946C143.618 19.7343 143.848 18.6557 144.309 17.7103C144.783 16.7516 145.454 15.9926 146.322 15.4334C147.202 14.8741 148.253 14.5945 149.473 14.5945C150.692 14.5945 151.736 14.8741 152.603 15.4334C153.484 15.9926 154.155 16.7516 154.616 17.7103C155.09 18.6691 155.328 19.7476 155.328 20.946V38.243C155.328 39.4414 155.09 40.5199 154.616 41.4786C154.155 42.4374 153.484 43.1963 152.603 43.7556C151.736 44.3149 150.692 44.5945 149.473 44.5945ZM149.473 40.4001C150.015 40.4001 150.394 40.1804 150.611 39.741C150.828 39.2882 150.936 38.7889 150.936 38.243V20.946C150.936 20.4001 150.821 19.9074 150.591 19.468C150.36 19.0153 149.988 18.7889 149.473 18.7889C148.971 18.7889 148.598 19.0153 148.355 19.468C148.124 19.9074 148.009 20.4001 148.009 20.946V38.243C148.009 38.7889 148.124 39.2882 148.355 39.741C148.585 40.1804 148.958 40.4001 149.473 40.4001Z" fill="white"/>
<path d="M164.667 44.2749V14.9141H169.058C170.725 14.9141 172.114 15.2736 173.225 15.9926C174.35 16.7117 175.191 17.7303 175.746 19.0485C176.302 20.3668 176.58 21.9181 176.58 23.7023C176.58 25.4866 176.288 27.0246 175.706 28.3162C175.123 29.6078 174.269 30.6198 173.144 31.3521C172.033 32.0712 170.671 32.464 169.058 32.5306V44.2749H164.667ZM169.058 28.1364C169.83 28.1364 170.44 27.99 170.888 27.697C171.335 27.3908 171.653 26.9114 171.843 26.2589C172.046 25.6065 172.148 24.7676 172.148 23.7423C172.148 22.7037 172.046 21.8581 171.843 21.2057C171.653 20.5532 171.328 20.0738 170.867 19.7676C170.42 19.4613 169.817 19.3082 169.058 19.3082V28.1364Z" fill="white"/>
<path d="M178.961 44.2749V14.9141H183.352C185.981 14.9141 187.919 15.6331 189.166 17.0712C190.413 18.4959 191.037 20.5998 191.037 23.3828C191.037 25.0339 190.738 26.4653 190.142 27.677C189.559 28.8754 188.848 29.7543 188.008 30.3135L190.996 44.2749H186.605L184.125 31.8914H183.352V44.2749H178.961ZM183.352 27.8967C184.165 27.8967 184.809 27.7236 185.283 27.3774C185.758 27.0179 186.097 26.5119 186.3 25.8595C186.503 25.207 186.605 24.4347 186.605 23.5426C186.605 22.1444 186.368 21.0725 185.893 20.3268C185.432 19.5679 184.585 19.1884 183.352 19.1884V27.8967Z" fill="white"/>
<path d="M199.145 44.5945C197.925 44.5945 196.875 44.3149 195.994 43.7556C195.126 43.1963 194.456 42.4374 193.981 41.4786C193.52 40.5199 193.29 39.4414 193.29 38.243V20.946C193.29 19.7343 193.52 18.6557 193.981 17.7103C194.456 16.7516 195.126 15.9926 195.994 15.4334C196.875 14.8741 197.925 14.5945 199.145 14.5945C200.365 14.5945 201.408 14.8741 202.276 15.4334C203.157 15.9926 203.828 16.7516 204.288 17.7103C204.763 18.6691 205 19.7476 205 20.946V38.243C205 39.4414 204.763 40.5199 204.288 41.4786C203.828 42.4374 203.157 43.1963 202.276 43.7556C201.408 44.3149 200.365 44.5945 199.145 44.5945ZM199.145 40.4001C199.687 40.4001 200.067 40.1804 200.283 39.741C200.5 39.2882 200.609 38.7889 200.609 38.243V20.946C200.609 20.4001 200.493 19.9074 200.263 19.468C200.033 19.0153 199.66 18.7889 199.145 18.7889C198.643 18.7889 198.271 19.0153 198.027 19.468C197.796 19.9074 197.681 20.4001 197.681 20.946V38.243C197.681 38.7889 197.796 39.2882 198.027 39.741C198.257 40.1804 198.63 40.4001 199.145 40.4001Z" fill="white"/>
</svg>
